<?xml version="1.0" encoding="UTF-8"?>
<svg xmlns="http://www.w3.org/2000/svg" width="15" height="16" viewBox="0 0 15 16" fill="none">
  <path d="M7.32759 2.3058C9.28448 2.3058 9.51552 2.31269 10.2879 2.3489C11.0017 2.38166 11.3897 2.50062 11.6483 2.60062C11.9897 2.73338 12.2345 2.892 12.4914 3.1489C12.7483 3.4058 12.9069 3.6489 13.0397 3.992C13.1397 4.25062 13.2586 4.63856 13.2914 5.35235C13.3259 6.12476 13.3345 6.35752 13.3345 8.31269C13.3345 10.2679 13.3276 10.5006 13.2914 11.273C13.2586 11.9868 13.1397 12.3748 13.0397 12.6334C12.9069 12.9748 12.7483 13.2196 12.4914 13.4765C12.2345 13.7334 11.9914 13.892 11.6483 14.0248C11.3897 14.1248 11.0017 14.2437 10.2879 14.2765C9.51552 14.311 9.28448 14.3196 7.32759 14.3196C5.37069 14.3196 5.13966 14.3127 4.36724 14.2765C3.65345 14.2437 3.26552 14.1248 3.0069 14.0248C2.66552 13.892 2.42069 13.7334 2.16379 13.4765C1.9069 13.2196 1.74828 12.9765 1.61552 12.6334C1.51552 12.3748 1.39655 11.9868 1.36379 11.273C1.32931 10.5006 1.32069 10.2679 1.32069 8.31269C1.32069 6.35752 1.32759 6.12476 1.36379 5.35235C1.39655 4.63856 1.51552 4.25062 1.61552 3.992C1.74828 3.65062 1.9069 3.4058 2.16379 3.1489C2.42069 2.892 2.66379 2.73338 3.0069 2.60062C3.26552 2.50062 3.65345 2.38166 4.36724 2.3489C5.13966 2.31269 5.37069 2.3058 7.32759 2.3058ZM7.32759 0.985107C5.33793 0.985107 5.08793 0.993728 4.3069 1.02994C3.52759 1.06614 2.99483 1.18856 2.52759 1.37131C2.04655 1.55925 1.63793 1.80925 1.22931 2.21614C0.822414 2.62304 0.57069 3.03166 0.384483 3.51442C0.203448 3.97994 0.0793103 4.51269 0.0431034 5.29373C0.00862069 6.07304 0 6.32304 0 8.31269C0 10.3023 0.00862069 10.5523 0.0448276 11.3334C0.0810345 12.1127 0.203448 12.6455 0.386207 13.1127C0.574138 13.5937 0.824138 14.0023 1.23103 14.411C1.63793 14.8179 2.04655 15.0696 2.52931 15.2558C2.99483 15.4368 3.52759 15.561 4.30862 15.5972C5.08793 15.6317 5.33793 15.6403 7.32759 15.6403C9.31724 15.6403 9.56724 15.6317 10.3483 15.5955C11.1276 15.5592 11.6603 15.4368 12.1276 15.2541C12.6086 15.0661 13.0172 14.8161 13.4259 14.4092C13.8328 14.0023 14.0845 13.5937 14.2707 13.111C14.4517 12.6455 14.5759 12.1127 14.6121 11.3317C14.6466 10.5523 14.6552 10.3023 14.6552 8.31269C14.6552 6.32304 14.6466 6.07304 14.6103 5.292C14.5741 4.51269 14.4517 3.97993 14.269 3.51269C14.081 3.03166 13.831 2.62304 13.4241 2.21442C13.0172 1.80752 12.6086 1.5558 12.1259 1.36959C11.6603 1.18856 11.1276 1.06442 10.3466 1.02821C9.56724 0.993728 9.31724 0.985107 7.32759 0.985107Z" fill="#05164D"></path>
  <path d="M7.3275 4.5506C5.24991 4.5506 3.56543 6.23508 3.56543 8.31267C3.56543 10.3903 5.24991 12.0747 7.3275 12.0747C9.40509 12.0747 11.0896 10.3903 11.0896 8.31267C11.0896 6.23508 9.40509 4.5506 7.3275 4.5506ZM7.3275 10.7558C5.97922 10.7558 4.8844 9.66267 4.8844 8.31267C4.8844 6.96267 5.9775 5.86956 7.3275 5.86956C8.6775 5.86956 9.7706 6.96267 9.7706 8.31267C9.7706 9.66267 8.67577 10.7558 7.3275 10.7558Z" fill="#05164D"></path>
  <path d="M11.2394 5.27992C11.725 5.27992 12.1187 4.88624 12.1187 4.40061C12.1187 3.91498 11.725 3.5213 11.2394 3.5213C10.7538 3.5213 10.3601 3.91498 10.3601 4.40061C10.3601 4.88624 10.7538 5.27992 11.2394 5.27992Z" fill="#05164D"></path>
</svg>
