<?xml version="1.0" encoding="UTF-8"?>
<svg xmlns="http://www.w3.org/2000/svg" width="14" height="16" viewBox="0 0 14 16" fill="none">
  <g clip-path="url(#clip0_863_445)">
    <path d="M13.7294 4.63685C13.7294 4.5696 13.7276 4.56616 13.6569 4.56788C13.4863 4.5696 13.3173 4.54892 13.15 4.52305C12.5414 4.43167 10.5656 3.39547 10.2311 1.70064C10.2242 1.66788 10.15 1.24719 10.15 1.06788C10.15 0.98857 10.1483 0.986846 10.0707 0.986846C10.0518 0.986846 10.0345 0.986846 10.0156 0.986846C9.24315 0.986846 8.46901 0.986846 7.6966 0.986846C7.54142 0.986846 7.56211 0.967881 7.56211 1.12305C7.56211 4.47478 7.56211 7.8265 7.56211 11.1782C7.56211 11.3041 7.55867 11.4282 7.53625 11.5506C7.41901 12.1989 7.08798 12.7075 6.52591 13.0541C6.0397 13.3541 5.51039 13.4403 4.94832 13.3282C4.77073 13.2937 4.60522 13.2265 4.4397 13.161C4.42591 13.1489 4.41211 13.1368 4.40005 13.1248C4.34487 13.0782 4.2828 13.0386 4.22246 12.9972C3.50694 12.5024 3.16729 11.8144 3.27074 10.9541C3.37591 10.0817 3.87763 9.48857 4.70522 9.1834C4.95177 9.09202 5.21211 9.05409 5.47591 9.0696C5.6466 9.07823 5.81556 9.10064 5.97936 9.14719C6.03625 9.16271 6.06729 9.14374 6.07073 9.0834C6.07246 9.06271 6.07246 9.04029 6.07246 9.0196C6.07246 8.41788 6.05005 7.10409 6.0466 7.10064C6.04832 6.92823 6.04832 6.75409 6.05177 6.58167C6.05349 6.53167 6.02763 6.52305 5.98625 6.51788C5.67418 6.48167 5.36211 6.47305 5.04832 6.49719C4.61556 6.52823 4.19487 6.61788 3.78625 6.76443C3.13453 6.99892 2.56384 7.36098 2.07073 7.84374C1.6466 8.25926 1.31384 8.73857 1.07073 9.27995C0.836252 9.79719 0.703494 10.3403 0.665563 10.9058C0.650045 11.1506 0.651769 11.3972 0.675907 11.6437C0.706942 11.9834 0.772459 12.3162 0.875907 12.642C1.17246 13.5765 1.71384 14.342 2.48108 14.9506C2.55867 15.0127 2.63453 15.08 2.72763 15.1196C2.76729 15.1541 2.80522 15.1886 2.84487 15.2231C2.96901 15.3162 3.10177 15.3972 3.24142 15.4644C4.10005 15.8886 5.00522 16.061 5.95867 15.9455C7.1966 15.7937 8.22763 15.2455 9.03798 14.3006C9.80177 13.411 10.1725 12.3679 10.1794 11.2006C10.1897 9.53167 10.1811 7.86271 10.1828 6.19202C10.1828 6.15236 10.1604 6.09547 10.2035 6.07478C10.238 6.05926 10.2725 6.10409 10.3052 6.1265C10.9259 6.53512 11.5966 6.82995 12.3225 6.99547C12.7449 7.09202 13.1707 7.15064 13.6052 7.15064C13.7414 7.15064 13.7604 7.14374 13.7604 7.00754C13.7604 6.41443 13.7276 4.79374 13.7294 4.63685Z" fill="#05164D"></path>
  </g>
  <defs>
    <clipPath id="clip0_863_445">
      <rect width="13.1034" height="14.9948" fill="white" transform="translate(0.655273 0.985107)"></rect>
    </clipPath>
  </defs>
</svg>
