<?xml version="1.0" encoding="UTF-8"?>
<svg xmlns="http://www.w3.org/2000/svg" width="16" height="16" viewBox="0 0 16 16" fill="none">
  <g clip-path="url(#clip0_863_449)">
    <path fill-rule="evenodd" clip-rule="evenodd" d="M13.3572 3.14887C11.9641 1.75404 10.1089 0.985077 8.13477 0.985077C4.0658 0.985077 0.753735 4.29542 0.75201 8.36439C0.75201 9.66439 1.09167 10.9351 1.73822 12.054L0.689941 15.8799L4.60373 14.854C5.68132 15.442 6.89684 15.7523 8.13132 15.7523H8.13477C12.2037 15.7523 15.5158 12.442 15.5175 8.37128C15.5175 6.39887 14.7503 4.54542 13.3572 3.14887ZM8.13477 14.504H8.13304C7.03132 14.504 5.95201 14.2075 5.01063 13.6489L4.78649 13.5161L2.46408 14.1247L3.08477 11.8609L2.93822 11.6282C2.32442 10.6523 2.00029 9.52301 2.00029 8.36439C2.00029 4.98335 4.75201 2.23163 8.13649 2.23163C9.77615 2.23163 11.3158 2.87128 12.4744 4.0299C13.633 5.18853 14.271 6.7299 14.2693 8.36956C14.2693 11.7523 11.5175 14.504 8.13477 14.504ZM11.5003 9.91094C11.3158 9.81784 10.4089 9.37301 10.2399 9.31094C10.071 9.24887 9.94856 9.21784 9.82442 9.40404C9.70201 9.58853 9.34856 10.004 9.23994 10.1265C9.13305 10.2489 9.02442 10.2644 8.83994 10.173C8.65546 10.0799 8.06063 9.8868 7.35718 9.25749C6.80891 8.76784 6.43822 8.16439 6.33132 7.9799C6.22442 7.79542 6.31925 7.69542 6.41235 7.60404C6.49511 7.52128 6.59684 7.38853 6.68822 7.28163C6.7796 7.17473 6.81063 7.09715 6.8727 6.97473C6.93477 6.85232 6.90373 6.7437 6.85718 6.65232C6.81063 6.55921 6.44167 5.65232 6.28822 5.28335C6.13822 4.92301 5.98649 4.97301 5.8727 4.96611C5.7658 4.96094 5.64167 4.95921 5.51925 4.95921C5.39684 4.95921 5.19684 5.00577 5.02787 5.19025C4.85891 5.37473 4.38304 5.82128 4.38304 6.72818C4.38304 7.63508 5.04339 8.51266 5.13649 8.63508C5.2296 8.75749 6.43649 10.6213 8.28822 11.4196C8.72787 11.6092 9.0727 11.723 9.33994 11.8075C9.78132 11.9471 10.1848 11.9282 10.502 11.8799C10.8572 11.8265 11.5934 11.4334 11.7468 11.0023C11.9003 10.5713 11.9003 10.2023 11.8537 10.1247C11.8089 10.0489 11.6848 10.0023 11.5003 9.91094Z" fill="#05164D"></path>
  </g>
  <defs>
    <clipPath id="clip0_863_449">
      <rect width="14.8276" height="14.8948" fill="white" transform="translate(0.689697 0.985107)"></rect>
    </clipPath>
  </defs>
</svg>
